<?xml version="1.0" encoding="UTF-8" standalone="no"?>
<!DOCTYPE svg PUBLIC "-//W3C//DTD SVG 1.1//EN"
 "http://www.w3.org/Graphics/SVG/1.1/DTD/svg11.dtd">
<!-- Generated by graphviz version 2.47.0 (20210316.0004)
 -->
<!-- Title: dependencies Pages: 1 -->
<svg width="504pt" height="211pt"
 viewBox="0.00 0.00 504.00 211.00" xmlns="http://www.w3.org/2000/svg" xmlns:xlink="http://www.w3.org/1999/xlink">
<g id="graph0" class="graph" transform="scale(1 1) rotate(0) translate(4 207)">
<title>dependencies</title>
<polygon fill="white" stroke="transparent" points="-4,4 -4,-207 500,-207 500,4 -4,4"/>
<text text-anchor="start" x="227.01" y="-42.4" font-family="Times-12" font-weight="bold" font-size="14.00">Legend</text>
<polygon fill="#ffffb3" stroke="transparent" points="14,-10 14,-30 34,-30 34,-10 14,-10"/>
<text text-anchor="start" x="37.63" y="-15.4" font-family="Times-12" font-size="14.00"> &#160;Declarations</text>
<polygon fill="#8dd3c7" stroke="transparent" points="127,-10 127,-30 147,-30 147,-10 127,-10"/>
<text text-anchor="start" x="150.73" y="-15.4" font-family="Times-12" font-size="14.00"> &#160;Module</text>
<polygon fill="#80b1d3" stroke="transparent" points="213,-10 213,-30 233,-30 233,-10 213,-10"/>
<text text-anchor="start" x="236.78" y="-15.4" font-family="Times-12" font-size="14.00"> &#160;Bootstrap</text>
<polygon fill="#fdb462" stroke="transparent" points="310,-10 310,-30 330,-30 330,-10 310,-10"/>
<text text-anchor="start" x="333.67" y="-15.4" font-family="Times-12" font-size="14.00"> &#160;Providers</text>
<polygon fill="#fb8072" stroke="transparent" points="406,-10 406,-30 426,-30 426,-10 406,-10"/>
<text text-anchor="start" x="429.73" y="-15.4" font-family="Times-12" font-size="14.00"> &#160;Exports</text>
<g id="clust1" class="cluster">
<title>cluster_AppModule</title>
<polygon fill="none" stroke="black" stroke-dasharray="1,5" points="131,-70 131,-195 365,-195 365,-70 131,-70"/>
</g>
<g id="clust3" class="cluster">
<title>cluster_AppModule_imports</title>
<polygon fill="none" stroke="black" points="139,-78 139,-130 357,-130 357,-78 139,-78"/>
</g>
<!-- DemoModule -->
<g id="node1" class="node">
<title>DemoModule</title>
<polygon fill="#8dd3c7" stroke="black" points="348.76,-122 345.76,-126 324.76,-126 321.76,-122 255.24,-122 255.24,-86 348.76,-86 348.76,-122"/>
<text text-anchor="middle" x="302" y="-99.8" font-family="Times,serif" font-size="14.00">DemoModule</text>
</g>
<!-- AppModule -->
<g id="node3" class="node">
<title>AppModule</title>
<polygon fill="#8dd3c7" stroke="black" points="288.66,-187 285.66,-191 264.66,-191 261.66,-187 205.34,-187 205.34,-151 288.66,-151 288.66,-187"/>
<text text-anchor="middle" x="247" y="-164.8" font-family="Times,serif" font-size="14.00">AppModule</text>
</g>
<!-- DemoModule&#45;&gt;AppModule -->
<g id="edge1" class="edge">
<title>DemoModule&#45;&gt;AppModule</title>
<path fill="none" stroke="black" d="M271.97,-122.11C271.97,-122.11 271.97,-140.99 271.97,-140.99"/>
<polygon fill="black" stroke="black" points="268.47,-140.99 271.97,-150.99 275.47,-140.99 268.47,-140.99"/>
</g>
<!-- HelloModule -->
<g id="node2" class="node">
<title>HelloModule</title>
<polygon fill="#8dd3c7" stroke="black" points="237.15,-122 234.15,-126 213.15,-126 210.15,-122 146.85,-122 146.85,-86 237.15,-86 237.15,-122"/>
<text text-anchor="middle" x="192" y="-99.8" font-family="Times,serif" font-size="14.00">HelloModule</text>
</g>
<!-- HelloModule&#45;&gt;AppModule -->
<g id="edge2" class="edge">
<title>HelloModule&#45;&gt;AppModule</title>
<path fill="none" stroke="black" d="M221.25,-122.11C221.25,-122.11 221.25,-140.99 221.25,-140.99"/>
<polygon fill="black" stroke="black" points="217.75,-140.99 221.25,-150.99 224.75,-140.99 217.75,-140.99"/>
</g>
</g>
</svg>
